$MeshFormat
4.1 0 8
$EndMeshFormat
$PhysicalNames
3
1 1 "left"
1 2 "right"
2 1 "volume"
$EndPhysicalNames
$Entities
4 4 1 0
1 0 0 0 0 
2 1 0 0 0 
3 1 1 0 0 
4 0 1 0 0 
1 -9.999999994736442e-08 -1e-07 -1e-07 1.0000001 1e-07 1e-07 0 2 1 -2 
2 0.9999999000000001 -9.999999994736442e-08 -1e-07 1.0000001 1.0000001 1e-07 1 2 2 2 -3 
3 -9.999999994736442e-08 0.9999999000000001 -1e-07 1.0000001 1.0000001 1e-07 0 2 3 -4 
4 -1e-07 -9.999999994736442e-08 -1e-07 1e-07 1.0000001 1e-07 1 1 2 4 -1 
1 -9.999999994736442e-08 -9.999999994736442e-08 -1e-07 1.0000001 1.0000001 1e-07 1 1 4 1 2 3 4 
$EndEntities
$Nodes
9 98 1 98
0 1 0 1
1
0 0 0
0 2 0 1
2
1 0 0
0 3 0 1
3
1 1 0
0 4 0 1
4
0 1 0
1 1 0 7
5
6
7
8
9
10
11
0.1249999999999998 0 0
0.2499999999999998 0 0
0.3749999999999994 0 0
0.4999999999999988 0 0
0.6249999999999988 0 0
0.7499999999999991 0 0
0.8749999999999994 0 0
1 2 0 7
12
13
14
15
16
17
18
1 0.1249999999999998 0
1 0.2499999999999998 0
1 0.3749999999999994 0
1 0.4999999999999988 0
1 0.6249999999999988 0
1 0.7499999999999991 0
1 0.8749999999999994 0
1 3 0 7
19
20
21
22
23
24
25
0.8750000000000001 1 0
0.7500000000000002 1 0
0.6250000000000007 1 0
0.5000000000000011 1 0
0.3750000000000012 1 0
0.2500000000000009 1 0
0.1250000000000006 1 0
1 4 0 7
26
27
28
29
30
31
32
0 0.8750000000000001 0
0 0.7500000000000002 0
0 0.6250000000000007 0
0 0.5000000000000011 0
0 0.3750000000000012 0
0 0.2500000000000009 0
0 0.1250000000000006 0
2 1 0 66
33
34
35
36
37
38
39
40
41
42
43
44
45
46
47
48
49
50
51
52
53
54
55
56
57
58
59
60
61
62
63
64
65
66
67
68
69
70
71
72
73
74
75
76
77
78
79
80
81
82
83
84
85
86
87
88
89
90
91
92
93
94
95
96
97
98
0.5624999999999989 0.1082531754730547 0
0.8787408590474761 0.5688788296333868 0
0.4375000000000012 0.8917468245269454 0
0.1107249391757801 0.4359051368937709 0
0.3098918535636471 0.1070150426096389 0
0.8917468245269455 0.3124999999999996 0
0.6871891340151978 0.8955068139135627 0
0.1182626851017918 0.669225973923011 0
0.1094851921887064 0.2033420655976694 0
0.8119703288398898 0.1058465056319792 0
0.1875000000000007 0.8917468245269449 0
0.879230463236312 0.8130906423764597 0
0.687411721473314 0.1078520638328755 0
0.6222382678779044 0.2148535068271494 0
0.4995397113129832 0.2162308769262824 0
0.5592159774975001 0.3228521478837691 0
0.4350399505186864 0.3232496269229517 0
0.4995115585047765 0.4327221170255846 0
0.6130571419252585 0.4327008212914639 0
0.55698961825214 0.5431506844806554 0
0.4365001961261518 0.5415315810733968 0
0.4989149690630471 0.6498774713089112 0
0.6204622660663316 0.6518781417959358 0
0.3748733700916652 0.6495569611339231 0
0.3123122610363022 0.5413164793658919 0
0.5624999999999973 0.757772228311381 0
0.2499999999999989 0.6495190528383259 0
0.3133176815799774 0.7523710733550598 0
0.685881360403847 0.7503445567222475 0
0.7558138451570435 0.6422638761822286 0
0.1875710532781786 0.5449975168824133 0
0.2499999999999993 0.433012701892217 0
0.1778732193721209 0.3232140480521861 0
0.301484014301639 0.3178829819971146 0
0.2375681941678717 0.2131232466900194 0
0.7646672502010368 0.229066006106814 0
0.891746824526945 0.6874999999999991 0
0.7774226411965254 0.5265527835888375 0
0.8628769461960453 0.4382017528180521 0
0.7819074654780986 0.3451910717748128 0
0.3125000000000009 0.891746824526945 0
0.4369885941461045 0.1080009076591809 0
0.5625000000000009 0.8917468245269455 0
0.3714895616679679 0.2148949910804582 0
0.3724746634145926 0.4316192480461928 0
0.4374999999999979 0.7577722283113806 0
0.8959004857786097 0.1879321779033213 0
0.8081462788186125 0.9070743513265296 0
0.103415783057214 0.8066379931605242 0
0.1911333561284869 0.1028269135594175 0
0.7923273839860845 0.7437108155792401 0
0.2010889394410991 0.7499266504670595 0
0.6739266620600561 0.3223988573944038 0
0.08453570123751109 0.5625000000000009 0
0.6718404232224279 0.5422756641907901 0
0.07733755452579327 0.3125000000000011 0
0.09150635094610993 0.09150635094611009 0
0.90849364905389 0.09150635094610993 0
0.09150635094611009 0.9084936490538901 0
0.9084936490538901 0.90849364905389 0
0.7301718800130685 0.43455349184306 0
0.3750000000000013 0.8247595264191645 0
0.4999999999999999 0.8247595264191637 0
0.6250000000000007 0.8247595264191652 0
0.2601608324359393 0.8246932292153027 0
0.7489644266062752 0.8253550026152658 0
$EndNodes
$Elements
3 178 1 178
1 2 1 8
1 2 12 
2 12 13 
3 13 14 
4 14 15 
5 15 16 
6 16 17 
7 17 18 
8 18 3 
1 4 1 8
9 4 26 
10 26 27 
11 27 28 
12 28 29 
13 29 30 
14 30 31 
15 31 32 
16 32 1 
2 1 2 162
17 68 79 38 
18 38 72 68 
19 34 69 62 
20 40 63 59 
21 62 70 34 
22 40 86 63 
23 15 71 14 
24 41 67 65 
25 37 76 67 
26 65 88 41 
27 34 71 15 
28 14 71 38 
29 36 65 64 
30 36 64 63 
31 49 77 66 
32 67 76 66 
33 42 79 68 
34 70 71 34 
35 66 77 64 
36 66 76 49 
37 70 93 71 
38 71 93 72 
39 69 83 62 
40 59 84 40 
41 65 66 64 
42 81 84 43 
43 84 97 43 
44 72 85 68 
45 71 72 38 
46 65 67 66 
47 67 82 37 
48 16 69 34 
49 45 46 33 
50 45 68 46 
51 9 45 33 
52 10 45 9 
53 17 69 16 
54 23 73 35 
55 42 45 10 
56 7 74 37 
57 24 73 23 
58 9 33 8 
59 44 69 17 
60 42 68 45 
61 33 74 8 
62 16 34 15 
63 53 77 50 
64 14 38 13 
65 8 74 7 
66 25 43 24 
67 43 73 24 
68 47 76 74 
69 30 36 29 
70 49 76 47 
71 50 77 49 
72 55 62 61 
73 32 41 31 
74 46 47 33 
75 74 76 37 
76 46 48 47 
77 56 59 57 
78 7 37 6 
79 23 35 22 
80 57 77 53 
81 18 44 17 
82 47 74 33 
83 58 78 54 
84 11 42 10 
85 48 50 49 
86 48 51 50 
87 51 52 50 
88 21 39 20 
89 22 75 21 
90 35 75 22 
91 48 49 47 
92 54 56 53 
93 64 77 57 
94 28 40 27 
95 52 55 54 
96 56 57 53 
97 54 78 56 
98 59 63 57 
99 52 53 50 
100 63 64 57 
101 21 75 39 
102 55 58 54 
103 55 61 58 
104 56 78 60 
105 52 54 53 
106 56 60 59 
107 62 87 70 
108 80 98 44 
109 44 98 83 
110 20 80 19 
111 27 81 26 
112 13 79 12 
113 63 86 36 
114 6 82 5 
115 37 82 6 
116 36 88 65 
117 38 79 13 
118 40 81 27 
119 39 80 20 
120 51 93 87 
121 41 82 67 
122 68 85 46 
123 48 85 51 
124 36 86 29 
125 28 86 40 
126 51 87 52 
127 55 87 62 
128 41 88 31 
129 30 88 36 
130 1 89 32 
131 4 91 25 
132 3 92 18 
133 5 89 1 
134 2 90 11 
135 12 90 2 
136 26 91 4 
137 19 92 3 
138 85 93 51 
139 62 83 61 
140 44 83 69 
141 60 84 59 
142 87 93 70 
143 46 85 48 
144 40 84 81 
145 29 86 28 
146 52 87 55 
147 72 93 85 
148 79 90 12 
149 80 92 19 
150 81 91 26 
151 31 88 30 
152 25 91 43 
153 11 90 42 
154 18 92 44 
155 32 89 41 
156 82 89 5 
157 94 97 60 
158 95 96 75 
159 58 96 95 
160 35 95 75 
161 73 94 35 
162 61 96 58 
163 78 94 60 
164 75 96 39 
165 58 95 78 
166 78 95 94 
167 94 95 35 
168 73 97 94 
169 43 97 73 
170 42 90 79 
171 44 92 80 
172 43 91 81 
173 61 98 96 
174 96 98 39 
175 41 89 82 
176 39 98 80 
177 60 97 84 
178 83 98 61 
$EndElements
