$MeshFormat
4.1 0 8
$EndMeshFormat
$Entities
1 1 1 0
1 1 0 0 0 
1 -1.0000001 -1.0000001 -1e-07 1.0000001 1.0000001 1e-07 0 2 1 -1 
1 -1.0000001 -1.0000001 -1e-07 1.0000001 1.0000001 1e-07 1 1 1 1 
$EndEntities
$Nodes
3 258 1 258
0 1 0 1
1
1 0 0
1 1 0 45
2
3
4
5
6
7
8
9
10
11
12
13
14
15
16
17
18
19
20
21
22
23
24
25
26
27
28
29
30
31
32
33
34
35
36
37
38
39
40
41
42
43
44
45
46
0.9906859460363308 0.1361666490962467 0
0.9629172873477992 0.2697967711570246 0
0.9172113015054528 0.3984010898462418 0
0.8544194045464882 0.519583950035434 0
0.7757112907044195 0.6310879443260532 0
0.6825531432186537 0.7308359642781245 0
0.5766803221148668 0.8169698930104423 0
0.4600650377311518 0.8878852184023754 0
0.3348796121709858 0.9422609221188206 0
0.2034560130526333 0.979084087682323 0
0.06824241336467034 0.9976687691905393 0
-0.06824241336467154 0.9976687691905392 0
-0.2034560130526343 0.9790840876823228 0
-0.3348796121709866 0.9422609221188204 0
-0.4600650377311525 0.8878852184023751 0
-0.5766803221148674 0.8169698930104419 0
-0.6825531432186542 0.7308359642781239 0
-0.7757112907044202 0.6310879443260523 0
-0.8544194045464889 0.5195839500354331 0
-0.9172113015054533 0.398401089846241 0
-0.9629172873477995 0.2697967711570238 0
-0.9906859460363308 0.1361666490962462 0
-1 -3.216245299353273e-16 0
-0.9906859460363308 -0.1361666490962468 0
-0.9629172873477991 -0.2697967711570249 0
-0.9172113015054528 -0.398401089846242 0
-0.8544194045464882 -0.519583950035434 0
-0.7757112907044196 -0.6310879443260531 0
-0.6825531432186541 -0.730835964278124 0
-0.5766803221148672 -0.816969893010442 0
-0.4600650377311519 -0.8878852184023753 0
-0.3348796121709856 -0.9422609221188207 0
-0.2034560130526328 -0.9790840876823231 0
-0.06824241336467046 -0.9976687691905393 0
0.06824241336467186 -0.9976687691905392 0
0.2034560130526342 -0.9790840876823228 0
0.3348796121709869 -0.9422609221188203 0
0.4600650377311524 -0.8878852184023751 0
0.5766803221148676 -0.8169698930104417 0
0.6825531432186542 -0.730835964278124 0
0.7757112907044201 -0.6310879443260524 0
0.8544194045464886 -0.5195839500354336 0
0.9172113015054532 -0.3984010898462411 0
0.9629172873477992 -0.2697967711570244 0
0.9906859460363306 -0.1361666490962472 0
2 1 0 212
47
48
49
50
51
52
53
54
55
56
57
58
59
60
61
62
63
64
65
66
67
68
69
70
71
72
73
74
75
76
77
78
79
80
81
82
83
84
85
86
87
88
89
90
91
92
93
94
95
96
97
98
99
100
101
102
103
104
105
106
107
108
109
110
111
112
113
114
115
116
117
118
119
120
121
122
123
124
125
126
127
128
129
130
131
132
133
134
135
136
137
138
139
140
141
142
143
144
145
146
147
148
149
150
151
152
153
154
155
156
157
158
159
160
161
162
163
164
165
166
167
168
169
170
171
172
173
174
175
176
177
178
179
180
181
182
183
184
185
186
187
188
189
190
191
192
193
194
195
196
197
198
199
200
201
202
203
204
205
206
207
208
209
210
211
212
213
214
215
216
217
218
219
220
221
222
223
224
225
226
227
228
229
230
231
232
233
234
235
236
237
238
239
240
241
242
243
244
245
246
247
248
249
250
251
252
253
254
255
256
257
258
0.7478077859928999 -0.1027838143804679 0
-0.71707393170707 0.194092525233627 0
-0.1535764096347165 -0.7390502578944894 0
0.086281350794061 0.7795632161244195 0
-0.6449485689987269 -0.3922019130966804 0
0.5767974867287858 0.5131902630257814 0
0.4440661655298276 -0.6214795859029477 0
-0.3503000290733743 0.6663461966945899 0
-0.3821794029370703 -0.685313329408399 0
-0.2368493337490462 -0.4882763485969009 0
0.00614935982777709 -0.5198409097622888 0
-0.08338813397645009 -0.2787883606968043 0
0.1744539812124746 -0.3076179291754841 0
0.08157308953613941 -0.06333454842163777 0
-0.186406727533119 -0.02802458449447187 0
-0.01962153167356341 0.1873083115061183 0
0.2441725044700688 0.147829614128587 0
-0.2740721961862905 0.2218677931471096 0
0.138584957892711 0.3817241168639022 0
-0.4643784350270194 0.01714833569558915 0
-0.3461251000130086 -0.2412288807817136 0
0.3369724148476449 -0.1048322756686826 0
0.5418855021207233 0.06812158082510605 0
-0.1412402926660753 0.4653672261064346 0
0.4460751178367624 -0.3672047642544539 0
0.08634328382914847 -0.7551626012373885 0
0.4220505739354997 0.3304860832766217 0
0.3025306687454306 0.5929414603744642 0
0.695802438183419 0.2983390605120838 0
-0.3611670481373401 0.4398459101538568 0
-0.5469438344347269 0.5414695060732838 0
-0.5117279035953662 0.3046921515878458 0
-0.7348999253575802 -0.05470447817308268 0
-0.563947075313996 -0.5909074688006809 0
0.6990266110024698 -0.3236732709730507 0
-0.1294278186903175 0.7350360226140628 0
0.6252280884268405 -0.5125555070888019 0
0.239122414844549 -0.5429206010489379 0
-0.7001001782785551 0.4138409842184053 0
0.5504980780048429 -0.1681406013567739 0
0.2902238873792334 -0.7617198181744639 0
0.7896826027289684 0.1066947196227493 0
-0.5619858319328388 -0.2114088056138046 0
-0.4402157918148956 -0.4289642641618302 0
0.2907101293401503 0.7968184712075217 0
0.4830643065480044 0.6971212850602857 0
0.03893204675751646 0.5706412205250412 0
-0.7790249691395931 -0.2502389234907947 0
-0.1353340556781964 0.6002016243602487 0
-0.2398639238818459 0.7006911096543263 0
-0.2457701608697248 0.5658567114005123 0
-0.05115412295427944 0.5180042233157379 0
-0.04524788596640051 0.652838621569552 0
-0.8627929356969555 -0.09543556363466477 0
-0.8627929356969555 0.04073108546158177 0
-0.7259869285323252 0.06969402353027215 0
-0.8538799388717003 0.1651295871649366 0
0.6188439701520712 0.1832303206685949 0
0.5589265060594594 0.3144125718943527 0
0.4819680380281115 0.1993038320508639 0
-0.5996391801922999 -0.01877807123874676 0
-0.5907261833670447 0.1056204304646081 0
0.6362999624561024 0.4057646617689326 0
0.4994240303321428 0.4218381731512015 0
-0.4880531693111928 0.1609202436417175 0
-0.6144009176512181 0.2493923384107364 0
0.7687451943609341 0.001955452621140723 0
0.6657840524248458 0.08740815022392767 0
0.6448466440568116 -0.0173311167776809 0
-0.3557335386053572 0.5530960534242234 0
-0.2512036704017077 0.4526065681301457 0
0.5461917900627831 -0.05000951026583391 0
0.6491529319988714 -0.1354622078686209 0
-0.405251767520014 -0.1120402725430622 0
-0.2662659137730638 -0.1346267326380927 0
-0.3253925812800691 -0.005438124399441357 0
-0.2147566169947293 -0.260008620739259 0
-0.1348974307547845 -0.1534064725956381 0
0.4394289584841841 -0.01835534742178829 0
0.3930290032953961 0.1079755974768465 0
0.2905724596588569 0.0214986692299522 0
0.2092727521918921 -0.08408341204516021 0
0.1628727970031041 0.04224753285347464 0
-0.08043091216981937 0.3263377688062765 0
-0.2076562444261829 0.3436175096267721 0
-0.146846863929927 0.204588052326614 0
-0.7103299298515732 -0.5116449287113668 0
-0.7810799352520899 -0.3953015014714612 0
0.8739038929964499 -0.05139190719023393 0
0.8553625366703496 -0.1862902927687461 0
0.6296753149737198 0.622013113651953 0
0.715608445637637 0.5163871065306077 0
0.009019468714694728 0.8886159926574794 0
0.1448686819233472 0.8793236519033713 0
-0.4634901755941208 0.741658044852516 0
-0.3425898206221804 0.8043035594067052 0
-0.1109094114996935 -0.8683595135425143 0
-0.244228010902851 -0.8406555900066551 0
-0.8171426166062616 0.296246807539934 0
0.563309654374241 -0.6761577750905359 0
0.45206560163049 -0.7546824021526614 0
-0.001327667386682172 0.4235456714851684 0
0.05948171310957379 0.2845162141850103 0
-0.369225315606655 0.1195080644213494 0
-0.2302394618597047 0.09692160432631886 0
0.1913787311813899 0.2647768654962446 0
0.1122754863982527 0.1675689628173527 0
0.030975778931288 0.06198688154224028 0
-0.1030141296033412 0.07964186350582324 0
-0.05241681899848977 -0.04567956645805481 0
0.2557131980300597 -0.2062251024220834 0
0.128013535374307 -0.185476238798561 0
-0.000907522220155327 -0.1710614545592211 0
0.04553292361801223 -0.2932031449361442 0
-0.2914872168810274 -0.3647526146893073 0
-0.1601187338627481 -0.3835323546468526 0
0.09030167052012583 -0.4137294194688865 0
-0.03861938707433649 -0.3993146352295466 0
0.4396640777371082 0.5530658617001228 0
0.3622906213404651 0.4617137718255429 0
0.7751109213649536 0.4089615052737589 0
0.8293598627656091 0.2840679158345542 0
0.06260669877578873 0.6751022183247303 0
0.1707313577514736 0.5817913404497527 0
0.1944060097697458 0.6862523382494418 0
-0.1153499869606346 -0.5040586291795949 0
-0.02157323394812823 0.7572996193692411 0
0.3102645495246185 -0.337411346714969 0
0.3915237663422036 -0.2360185199615683 0
-0.07371352490346972 -0.6294455838283891 0
-0.1952128716918813 -0.6136633032456952 0
0.1448996484408913 -0.8671233444598557 0
0.009050435232239007 -0.8764156852139638 0
-0.03361656290278402 -0.747106429565939 0
-0.3385325627819709 -0.4586203063793656 0
-0.4111975973759829 -0.5571387967851146 0
-0.3095143683430582 -0.5867948390026499 0
0.3331115392027842 0.2391578487026043 0
0.5356516031318014 -0.4398801356716279 0
0.6621273497146551 -0.4181143890309263 0
0.5725508644196161 -0.3454390176137523 0
0.6247623445036563 -0.2459069361649123 0
0.4982865979208027 -0.2676726828056139 0
-0.3929000498908283 0.2632799723674777 0
0.2966203990427904 0.6948799657909929 0
0.1884957400671056 0.7881908436659706 0
-0.5020814335644458 -0.5099358664812556 0
-0.4730632391255331 -0.6381103991045399 0
0.7427425204561937 0.2025168900674165 0
0.5299308966383951 0.6051557740430336 0
0.3927974876467175 0.645031372717375 0
0.4437352464262439 -0.1364864385127283 0
0.3425987663406557 -0.4550626826516959 0
0.3415942901871883 -0.5822000934759428 0
0.445070641683295 -0.4943421750787008 0
0.2067881980285118 -0.425269265112211 0
0.08875850232511373 0.4761826686944717 0
0.2205578133190708 0.4873327886191832 0
0.2803177659141053 0.3561051000702619 0
-0.6613275625695736 0.5862787251996681 0
-0.5618120782747972 0.6792196995418628 0
-0.4486219317540506 0.6039078513839369 0
0.04624632182846278 -0.6375017554998387 0
-0.5293358690150466 0.4230808288305649 0
-0.4364474758663531 0.3722690308708513 0
-0.4540554412860335 0.4906577081135703 0
0.1627328493368487 -0.6490416011431632 0
0.122635887336163 -0.5313807554056134 0
-0.2678779062858934 -0.7121817936514442 0
-0.623522006356641 0.4776552451458446 0
-0.6059140409369607 0.3592665679031256 0
0.188283585604191 -0.7584412097059262 0
0.2646731511118912 -0.6523202096117009 0
0.5346471269783341 -0.5670175464958748 0
-0.5425821804068113 -0.4105830886292553 0
-0.5011008118738672 -0.3201865348878174 0
-0.6034672004657828 -0.3018053593552425 0
-0.3176196221618153 0.3308568516504832 0
-0.8848554575879619 -0.1932027862935208 0
-0.7569624472485866 -0.1524717008319387 0
-0.3585295075540279 -0.8137871257636099 0
-0.4794298625259687 -0.7511416112094205 0
-0.5703136987144316 -0.7039386809055614 0
-0.6698291830092078 -0.610997706563367 0
-0.232153715430652 0.8386484723664416 0
-0.09883511602749452 0.866352395902301 0
-0.6044478221563615 -0.4915546909486807 0
0.6538906158227474 -0.621695735683463 0
0.8309719491751345 -0.2967350210650375 0
0.7767230077744792 -0.4216286105042421 0
0.7398237464866645 -0.5160697285621177 0
0.7234171984976848 -0.2132285426767593 0
-0.8086557398920041 0.4061210370323232 0
-0.7379057344914877 0.5224644642722288 0
0.3751444625551929 -0.8248025182884194 0
0.2468399502159338 -0.8704019529283934 0
0.8762999450383838 0.1882457453898869 0
0.8948413013644841 0.05334735981137465 0
0.2470830711963918 0.8879512794449224 0
-0.848118135322523 -0.3243200066685183 0
0.582808724883329 0.7139786246692051 0
-0.6484428786452096 -0.1330566418934437 0
-0.5131821334799291 -0.09713023495910772 0
-0.7085870549928125 0.3039667547260162 0
-0.3931704459139521 -0.3350965724717719 0
-0.4540554659729237 -0.2263188431977591 0
0.3671450264545305 -0.6915997020387058 0
0.375387583535651 0.8423518448049486 0
0.4715646721395781 0.7925032517313305 0
-0.71198676906916 -0.3212204182937375 0
-0.670505400536216 -0.2308238645522997 0
0.3868872179440774 0.7469698781339037 0
$EndNodes
$Elements
1 468 1 468
2 1 2 468
1 70 95 97 
2 95 96 97 
3 95 82 96 
4 97 96 54 
5 70 98 95 
6 98 99 95 
7 98 93 99 
8 95 99 82 
9 25 100 24 
10 100 101 24 
11 100 79 101 
12 24 101 23 
13 23 101 103 
14 101 102 103 
15 101 79 102 
16 103 102 48 
17 69 104 106 
18 104 105 106 
19 104 75 105 
20 106 105 73 
21 48 102 108 
22 102 107 108 
23 102 79 107 
24 108 107 66 
25 73 105 110 
26 105 109 110 
27 105 75 109 
28 110 109 52 
29 66 111 108 
30 111 112 108 
31 111 78 112 
32 108 112 48 
33 47 113 115 
34 113 114 115 
35 113 88 114 
36 115 114 69 
37 54 116 97 
38 116 117 97 
39 116 76 117 
40 97 117 70 
41 69 118 115 
42 118 119 115 
43 118 86 119 
44 115 119 47 
45 66 120 122 
46 120 121 122 
47 120 67 121 
48 122 121 61 
49 61 121 124 
50 121 123 124 
51 121 67 123 
52 124 123 58 
53 68 125 127 
54 125 126 127 
55 125 69 126 
56 127 126 63 
57 60 128 129 
58 128 127 129 
59 128 68 127 
60 129 127 63 
61 62 130 132 
62 130 131 132 
63 130 70 131 
64 132 131 64 
65 29 133 28 
66 133 134 28 
67 133 51 134 
68 28 134 27 
69 1 135 46 
70 135 136 46 
71 135 47 136 
72 46 136 45 
73 7 137 6 
74 137 138 6 
75 137 52 138 
76 6 138 5 
77 13 139 12 
78 139 140 12 
79 139 50 140 
80 12 140 11 
81 17 141 16 
82 141 142 16 
83 141 54 142 
84 16 142 15 
85 35 143 34 
86 143 144 34 
87 143 49 144 
88 34 144 33 
89 23 103 22 
90 103 145 22 
91 103 48 145 
92 22 145 21 
93 41 146 40 
94 146 147 40 
95 146 53 147 
96 40 147 39 
97 65 148 149 
98 148 130 149 
99 148 70 130 
100 149 130 62 
101 64 150 151 
102 150 122 151 
103 150 66 122 
104 151 122 61 
105 63 152 153 
106 152 149 153 
107 152 65 149 
108 153 149 62 
109 60 129 154 
110 129 153 154 
111 129 63 153 
112 154 153 62 
113 62 132 155 
114 132 151 155 
115 132 64 151 
116 155 151 61 
117 60 154 156 
118 154 155 156 
119 154 62 155 
120 156 155 61 
121 59 157 158 
122 157 128 158 
123 157 68 128 
124 158 128 60 
125 60 156 159 
126 156 124 159 
127 156 61 124 
128 159 124 58 
129 59 158 160 
130 158 159 160 
131 158 60 159 
132 160 159 58 
133 58 123 162 
134 123 161 162 
135 123 67 161 
136 162 161 56 
137 57 163 164 
138 163 160 164 
139 163 59 160 
140 164 160 58 
141 52 165 110 
142 165 166 110 
143 165 74 166 
144 110 166 73 
145 52 109 138 
146 109 167 138 
147 109 75 167 
148 138 167 5 
149 5 167 4 
150 167 168 4 
151 167 75 168 
152 4 168 3 
153 50 169 171 
154 169 170 171 
155 169 93 170 
156 171 170 74 
157 57 164 172 
158 164 162 172 
159 164 58 162 
160 172 162 56 
161 82 99 173 
162 99 169 173 
163 99 93 169 
164 173 169 50 
165 59 174 157 
166 174 175 157 
167 174 71 175 
168 157 175 68 
169 49 176 177 
170 176 172 177 
171 176 57 172 
172 177 172 56 
173 37 178 36 
174 178 179 36 
175 178 72 179 
176 36 179 35 
177 35 179 143 
178 179 180 143 
179 179 72 180 
180 143 180 49 
181 56 181 183 
182 181 182 183 
183 181 90 182 
184 183 182 55 
185 69 106 126 
186 106 184 126 
187 106 73 184 
188 126 184 63 
189 71 185 187 
190 185 186 187 
191 185 83 186 
192 187 186 81 
193 81 188 187 
194 188 189 187 
195 188 86 189 
196 187 189 71 
197 64 190 150 
198 190 111 150 
199 190 78 111 
200 150 111 66 
201 74 191 171 
202 191 192 171 
203 191 91 192 
204 171 192 50 
205 55 182 194 
206 182 193 194 
207 182 90 193 
208 194 193 80 
209 69 114 104 
210 114 195 104 
211 114 88 195 
212 104 195 75 
213 52 196 165 
214 196 197 165 
215 196 92 197 
216 165 197 74 
217 68 198 125 
218 198 118 125 
219 198 86 118 
220 125 118 69 
221 71 199 201 
222 199 200 201 
223 199 84 200 
224 201 200 53 
225 59 202 174 
226 202 199 174 
227 202 84 199 
228 174 199 71 
229 74 170 204 
230 170 203 204 
231 170 93 203 
232 204 203 65 
233 73 166 205 
234 166 204 205 
235 166 74 204 
236 205 204 65 
237 19 206 18 
238 206 207 18 
239 206 77 207 
240 18 207 17 
241 17 207 141 
242 207 208 141 
243 207 77 208 
244 141 208 54 
245 49 180 176 
246 180 209 176 
247 180 72 209 
248 176 209 57 
249 77 210 212 
250 210 211 212 
251 210 78 211 
252 212 211 76 
253 63 184 152 
254 184 205 152 
255 184 73 205 
256 152 205 65 
257 72 213 209 
258 213 214 209 
259 213 84 214 
260 209 214 57 
261 49 177 215 
262 177 183 215 
263 177 56 183 
264 215 183 55 
265 77 216 210 
266 216 217 210 
267 216 85 217 
268 210 217 78 
269 72 218 213 
270 218 219 213 
271 218 87 219 
272 213 219 84 
273 53 220 201 
274 220 185 201 
275 220 83 185 
276 201 185 71 
277 51 221 223 
278 221 222 223 
279 221 90 222 
280 223 222 89 
281 70 117 131 
282 117 224 131 
283 117 76 224 
284 131 224 64 
285 25 225 100 
286 225 226 100 
287 225 94 226 
288 100 226 79 
289 33 227 32 
290 227 228 32 
291 227 55 228 
292 32 228 31 
293 49 215 144 
294 215 227 144 
295 215 55 227 
296 144 227 33 
297 31 229 30 
298 229 230 30 
299 229 80 230 
300 30 230 29 
301 15 231 14 
302 231 232 14 
303 231 82 232 
304 14 232 13 
305 54 96 142 
306 96 231 142 
307 96 82 231 
308 142 231 15 
309 29 230 133 
310 230 233 133 
311 230 80 233 
312 133 233 51 
313 41 234 146 
314 234 220 146 
315 234 83 220 
316 146 220 53 
317 13 232 139 
318 232 173 139 
319 232 82 173 
320 139 173 50 
321 45 235 44 
322 235 236 44 
323 235 81 236 
324 44 236 43 
325 43 237 42 
326 237 234 42 
327 237 83 234 
328 42 234 41 
329 47 238 136 
330 238 235 136 
331 238 81 235 
332 136 235 45 
333 21 239 20 
334 239 240 20 
335 239 85 240 
336 20 240 19 
337 39 241 38 
338 241 242 38 
339 241 87 242 
340 38 242 37 
341 3 243 2 
342 243 244 2 
343 243 88 244 
344 2 244 1 
345 50 192 140 
346 192 245 140 
347 192 91 245 
348 140 245 11 
349 27 246 26 
350 246 225 26 
351 246 94 225 
352 26 225 25 
353 7 247 137 
354 247 196 137 
355 247 92 196 
356 137 196 52 
357 57 214 163 
358 214 202 163 
359 214 84 202 
360 163 202 59 
361 79 248 107 
362 248 249 107 
363 248 89 249 
364 107 249 66 
365 48 250 145 
366 250 239 145 
367 250 85 239 
368 145 239 21 
369 89 222 252 
370 222 251 252 
371 222 90 251 
372 252 251 67 
373 66 249 120 
374 249 252 120 
375 249 89 252 
376 120 252 67 
377 53 253 147 
378 253 241 147 
379 253 87 241 
380 147 241 39 
381 1 244 135 
382 244 113 135 
383 244 88 113 
384 135 113 47 
385 67 251 161 
386 251 181 161 
387 251 90 181 
388 161 181 56 
389 11 245 10 
390 245 254 10 
391 245 91 254 
392 10 254 9 
393 9 255 8 
394 255 247 8 
395 255 92 247 
396 8 247 7 
397 65 203 148 
398 203 98 148 
399 203 93 98 
400 148 98 70 
401 51 256 134 
402 256 246 134 
403 256 94 246 
404 134 246 27 
405 71 189 175 
406 189 198 175 
407 189 86 198 
408 175 198 68 
409 89 257 223 
410 257 256 223 
411 257 94 256 
412 223 256 51 
413 54 208 116 
414 208 212 116 
415 208 77 212 
416 116 212 76 
417 75 195 168 
418 195 243 168 
419 195 88 243 
420 168 243 3 
421 47 119 238 
422 119 188 238 
423 119 86 188 
424 238 188 81 
425 76 211 224 
426 211 190 224 
427 211 78 190 
428 224 190 64 
429 37 242 178 
430 242 218 178 
431 242 87 218 
432 178 218 72 
433 78 217 112 
434 217 250 112 
435 217 85 250 
436 112 250 48 
437 19 240 206 
438 240 216 206 
439 240 85 216 
440 206 216 77 
441 84 219 200 
442 219 253 200 
443 219 87 253 
444 200 253 53 
445 79 226 248 
446 226 257 248 
447 226 94 257 
448 248 257 89 
449 55 194 228 
450 194 229 228 
451 194 80 229 
452 228 229 31 
453 81 186 236 
454 186 237 236 
455 186 83 237 
456 236 237 43 
457 80 193 233 
458 193 221 233 
459 193 90 221 
460 233 221 51 
461 74 197 191 
462 197 258 191 
463 197 92 258 
464 191 258 91 
465 91 258 254 
466 258 255 254 
467 258 92 255 
468 254 255 9 
$EndElements
